<?xml version="1.0" encoding="UTF-8"?>
<svg id="_圖層_2" data-name="圖層 2" xmlns="http://www.w3.org/2000/svg" xmlns:xlink="http://www.w3.org/1999/xlink" viewBox="0 0 651.81 57.42">
  <defs>
    <style>
      .cls-1 {
        filter: url(#drop-shadow-1);
      }

      .cls-2 {
        filter: url(#drop-shadow-2);
      }

      .cls-3 {
        fill: #ffd600;
      }
    </style>
    <filter id="drop-shadow-1" x="-8.77" y="10.56" width="106" height="61" filterUnits="userSpaceOnUse">
      <feOffset dx="0" dy="5.85"/>
      <feGaussianBlur result="blur" stdDeviation="2.92"/>
      <feFlood flood-color="#a24c00" flood-opacity=".25"/>
      <feComposite in2="blur" operator="in"/>
      <feComposite in="SourceGraphic"/>
    </filter>
    <filter id="drop-shadow-2" x="87.44" y="-2.24" width="98" height="71" filterUnits="userSpaceOnUse">
      <feOffset dx="0" dy="4.38"/>
      <feGaussianBlur result="blur-2" stdDeviation="2.19"/>
      <feFlood flood-color="#a24c00" flood-opacity=".25"/>
      <feComposite in2="blur-2" operator="in"/>
      <feComposite in="SourceGraphic"/>
    </filter>
  </defs>
  <g id="_圖層_1-2" data-name="圖層 1">
    <g>
      <path class="cls-3" d="M223.1,45.37h-5.12v-1.69h-5.71v1.74h-5.16v-13.19h-5.79v17.12h26.64v4.9h-26.64v2.71h-5.24v-24.73h-6.09v-4.9h6.09v-8.96l6.39.34c-.04.42-.34.68-1.14.8v7.82h5.79v-9.89l6.26.34c-.04.47-.34.68-1.1.85v8.71h5.71v-9.47l6.26.34c-.04.46-.38.68-1.14.85v8.29h6.34v4.9h-6.34v13.15ZM212.28,38.94h5.71v-6.72h-5.71v6.72Z"/>
      <path class="cls-3" d="M270.6,36.83h-6.81c2.88,2.79,7.02,5.07,11.42,6.3-1.14,1.01-2.62,2.96-3.38,4.27-2.92-1.01-5.67-2.53-8.08-4.44v14.04h-5.03v-15.98l3,.17c-1.39-1.35-2.66-2.79-3.72-4.36h-5.54c-1.1,1.48-2.37,2.92-3.76,4.23l4.06.21c-.04.42-.34.68-1.1.8v1.94c0,4.31-1.14,9.98-9.6,13.4-.63-1.18-2.24-3-3.3-3.89,7.99-2.92,7.99-7.27,7.99-10.82-2.53,1.99-5.41,3.63-8.37,4.78-.76-1.18-2.2-3.09-3.3-4.06,4.27-1.35,8.46-3.76,11.37-6.6h-6.43v-18.35h30.57v18.35ZM244.98,22.58v3.13h7.57v-3.13h-7.57ZM244.98,29.51v3.21h7.57v-3.21h-7.57ZM265.44,25.71v-3.13h-7.95v3.13h7.95ZM265.44,32.73v-3.21h-7.95v3.21h7.95Z"/>
      <path class="cls-3" d="M283.14,28.75c2.15,1.06,4.95,2.71,6.3,4.02l-2.92,3.89c-1.27-1.31-4.02-3.21-6.17-4.36l2.79-3.55ZM284.07,17.63c2.12,1.14,4.86,2.92,6.17,4.31l-3.04,3.8c-1.23-1.44-3.89-3.38-6.05-4.69l2.92-3.43ZM281.32,53.91c1.56-3.34,3.72-8.71,5.37-13.7l4.01,2.58c-1.39,4.48-3.13,9.22-4.48,12.47.25.3.38.59.38.93,0,.17-.04.34-.12.51l-5.16-2.79ZM316.33,32.18l2.5-.8c.76,1.73,1.52,3.97,1.86,5.41l-2.71.89c-.21-1.44-.93-3.72-1.65-5.41v6.43h-3.25v-5.92h-.09c-.46,1.86-1.23,4.14-2.24,5.54-.47-.38-1.31-1.01-1.94-1.44v1.39h-8.16v-6.38h8.16v4.31c.68-1.27,1.18-3.09,1.52-4.82l2.75.8v-1.73l-2.54.13c-.09.34-.38.51-.64.55l-1.01-3.59,2.2-.04c.42-.47.85-.97,1.31-1.52-.8-.85-1.78-1.78-2.75-2.54v.47h-10.19v-1.1h-.3c-.93,1.35-2.37,3.13-3.76,4.69l2.12-.04-.51-1.35,2.2-.76c.68,1.39,1.18,3.3,1.39,4.61h.04v-1.52h8.12v2.37h-8.12v-.55l-2.32.89c0-.3-.04-.63-.13-.97l-1.31.09v8.46h-3.17v-5.58c-.46,1.77-1.27,3.85-2.28,5.16-.51-.51-1.56-1.23-2.2-1.61.85-1.27,1.48-3.34,1.9-5.28l2.58.76v-1.69l-2.49.13c-.09.34-.34.51-.63.55l-1.01-3.59h2.37c.42-.51.85-1.06,1.31-1.61-.93-.97-2.07-2.03-3.17-2.83l1.61-2.5.51.34c.72-1.31,1.44-2.83,1.9-3.98l3.34,1.78c-.21.3-.59.38-.97.34-.5.97-1.35,2.33-2.15,3.51l.85.72c.68-.97,1.27-1.9,1.77-2.75l2.54,1.52v-.8h10.19v1.01l1.14-1.69.51.34c.8-1.31,1.57-2.83,2.03-3.98l3.34,1.78c-.21.3-.59.38-.97.34-.55.97-1.44,2.33-2.28,3.51.34.3.63.55.93.85.76-1.06,1.48-2.12,2.03-3l3.26,1.94c-.17.26-.51.34-1.01.3-1.01,1.39-2.54,3.21-4.02,4.82l2.41-.04-.63-1.35,2.41-1.01c.85,1.57,1.65,3.64,1.95,4.99l-2.58,1.14c-.04-.34-.13-.72-.25-1.1l-1.56.13v1.94ZM314.85,48.25l.97-.13,2.88.8c-.08.38-.21.72-.38,1.01-1.18,6.51-2.58,7.02-7.91,7.02-1.23,0-2.71-.04-4.23-.09-.04-1.14-.59-2.66-1.27-3.72,1.78.21,3.64.25,4.86.25,2.37,0,2.75,0,3.43-1.99h-16.32l-.34,1.1-4.52-.59c.76-2.2,1.57-5.37,2.07-7.95h17.34v-1.35h-18.9v-2.96h23.59v7.23h-18.05l-.34,1.35h17.12ZM298.02,36.66c-.17-1.23-.59-3.13-1.01-4.65l2.41-.55c.47,1.44.93,3.3,1.1,4.52l-2.49.68ZM300.64,27.36v-2.37h8.12v2.37h-8.12ZM308.47,17.8v2.37h-7.44v-2.37h7.44ZM305.72,35.98v-1.86h-2.11v1.86h2.11Z"/>
      <path class="cls-3" d="M377.75,20v3.51h-38.01v-3.51h16.15v-2.96l6.51.38c-.04.38-.38.68-1.23.8v1.77h16.57ZM364.85,41.39c.55,1.35,1.23,2.62,1.99,3.76,2.07-1.1,4.31-2.41,5.79-3.51l3.85,3.09c-.13.17-.38.25-.68.25-.17,0-.3,0-.47-.04-1.52.89-3.97,2.11-6.13,3.09,2.28,2.16,5.2,3.72,8.84,4.61-.97.93-2.24,2.66-2.79,3.85-7.74-2.37-12.13-7.48-14.59-15.09h-1.73c-.46.25-.97.51-1.48.76,4.1,2.62,6,6.17,6,9.09,0,3.47-2.79,5.75-6.64,5.75-.93,0-2.16,0-3.34-.04-.08-1.06-.47-2.54-1.06-3.59-3.26,1.48-6.85,2.58-10.44,3.3-.51-.89-1.48-2.28-2.24-3.04,6.72-1.02,13.57-3.38,17.63-6.6-.25-.3-.59-.63-.93-.93-3.76,2.32-9.18,4.19-13.95,5.07-.42-.76-1.35-1.9-2.03-2.58,4.86-.68,10.36-2.2,13.91-4.14l-1.1-.63c-3.3,1.1-6.93,1.99-10.23,2.62-.34-.72-1.14-2.12-1.61-2.75,3.25-.46,7.02-1.27,10.32-2.28h-5.75v-3.09h25.37v3.09h-6.51ZM377.37,40.76h-4.57v-3.85h-28.24v4.14h-4.4v-7.48h37.21v7.19ZM345.44,24.95h26.81v7.36h-26.81v-7.36ZM366.84,29.6v-1.94h-16.32v1.94h16.32ZM359.1,50.82c0-.38-.04-.8-.21-1.27-1.69,1.27-3.64,2.45-5.71,3.47,1.1.04,2.16.04,2.83.04,1.01,0,3.09,0,3.09-2.24Z"/>
      <path class="cls-3" d="M405.38,49.22c0,1.9.38,2.16,2.92,2.16h7.23c2.28,0,2.71-.93,3-5.92,1.23.89,3.55,1.78,5.07,2.12-.68,6.85-2.28,8.79-7.65,8.79h-8.2c-6.26,0-7.95-1.65-7.95-7.1v-4.69l-13.91,1.48-.72-4.86,14.63-1.52v-4.57c-3.13.59-6.34,1.1-9.43,1.52-.25-1.27-.97-3.21-1.61-4.4.51-.09.97-.09,1.48-.17v-.04h-4.19v-10.11h15.3v-4.86l6.64.34c-.04.47-.38.72-1.23.85v3.68h15.56v10.11h-5.41v-5.33h-25.71v5.16c7.23-1.1,14.67-2.92,19.32-5.07l4.27,4.27c-.21.21-.3.21-1.18.21-2.2.89-4.82,1.73-7.7,2.45l.63.04c-.04.42-.38.68-1.18.85v4.52l17.55-1.82.68,4.69-18.22,1.95v5.28Z"/>
      <path class="cls-3" d="M455.25,32.73c.64,1.9,1.39,3.68,2.28,5.37,2.15-1.44,4.48-3.17,6.04-4.65l4.44,4.02c-.17.17-.51.25-.85.25-.12,0-.29,0-.46-.04-1.65,1.23-4.36,2.92-6.68,4.23,2.54,3.25,5.79,5.79,9.89,7.31-1.14,1.01-2.66,3-3.43,4.4-7.95-3.51-12.64-10.61-15.43-19.79-1.14.8-2.37,1.52-3.68,2.24,5.45,3.85,7.65,8.79,7.65,12.85,0,4.86-3.09,8.12-7.95,8.12-1.01,0-2.2-.04-3.38-.09-.09-1.35-.47-3.34-1.35-4.82,1.44.17,2.71.21,3.72.21s1.9-.13,2.54-.8c.8-.55,1.27-1.69,1.27-3.17,0-.51-.04-1.06-.17-1.61-4.65,3.55-11.08,6.89-16.57,8.75-.59-1.23-1.65-3.09-2.66-4.18,6.04-1.52,13.23-5.03,17.42-8.54-.25-.38-.55-.76-.89-1.14-3.59,2.37-8.63,4.78-12.6,6.22-.55-1.14-1.61-2.88-2.54-3.85,3.97-.97,9.09-3,12.39-5.03-.38-.3-.8-.59-1.23-.89-2.83,1.18-5.88,2.15-8.79,2.87-.51-.97-1.65-2.87-2.37-3.8,4.52-.93,9.3-2.45,13.15-4.44h-6.81v-4.31h22.66v4.31h-5.62ZM436.64,25.84v4.95h-4.95v-9.55h15.22v-4.19l6.38.34c-.04.42-.34.68-1.14.8v3.04h15.56v9.55h-5.2v-4.95h-25.88Z"/>
      <path class="cls-3" d="M508.33,45.58c1.56,3.17,3.98,5.88,7.06,7.31-1.1.93-2.62,2.79-3.38,4.06-3.09-1.86-5.45-4.9-7.1-8.54-1.57,3.09-4.4,6.09-9.22,8.5-.68-1.01-2.16-2.58-3.25-3.43,5.16-2.24,7.57-5.12,8.67-7.9h-7.23v-4.52h3.68c-.85-.76-2.54-1.9-3.63-2.49,1.77-2.24,3.17-6.05,3.97-9.81h-.04c-1.06,1.65-2.24,3.13-3.51,4.31-.76-.93-2.45-2.62-3.42-3.42.34-.3.68-.63,1.01-1.01h-7.48c-.04,1.61-.09,3.3-.17,4.95h4.69l1.06-.04,2.62.21c-.04.38-.04.97-.13,1.48-.42,13.32-.93,18.22-2.11,19.83-.85,1.14-1.69,1.56-2.92,1.77-.72.13-1.74.21-2.83.21-.51,0-1.01-.04-1.56-.04-.09-1.35-.55-3.34-1.27-4.61,1.35.13,2.54.17,3.17.17.55,0,.89-.13,1.27-.63.72-.89,1.14-4.44,1.44-13.74h-3.72c-.59,7.1-1.99,14-5.41,18.81-.76-1.18-2.28-2.71-3.55-3.51,4.1-5.83,4.52-15.47,4.65-24.86h-4.14v-4.69h7.06v-6.81l6,.34c-.04.38-.34.68-1.1.76v5.71h6.13v2.45c1.73-2.66,3.04-5.96,3.89-9.34l5.67,1.48c-.13.34-.47.55-1.06.55-.34,1.18-.76,2.37-1.18,3.51h13.7v4.57h-15.81l-.3.51,4.9,1.27c-.09.34-.47.55-.97.51-.17.8-.38,1.61-.63,2.41h11.62v4.44h-6.64v3.76c0,.34,0,.68-.04,1.01h8.03v4.52h-6.47ZM497.55,41.06h4.44v-4.78h-1.73c-.8,1.82-1.69,3.47-2.71,4.78Z"/>
      <path class="cls-3" d="M533.55,42.79v.63c1.35.8,5.24,3.63,6.22,4.4l-2.88,3.63c-.76-.84-2.03-2.11-3.34-3.34v8.84h-4.9v-8.12c-1.61,2.2-3.38,4.19-5.16,5.54-.76-1.1-2.24-2.75-3.3-3.6,2.79-1.77,5.71-4.9,7.65-7.99h-6.55v-4.27h7.36v-3.09h-7.86v-4.19h4.18c-.25-1.52-.76-3.38-1.44-4.86l2.75-.8h-4.65v-4.14h7.02v-4.36l6,.3c-.04.42-.34.68-1.1.8v3.25h6.89v4.14h-4.23l3.42.89c-.13.29-.47.47-1.06.51-.47,1.27-1.23,2.88-1.99,4.27h4.74v4.19h-6.85c-.17.17-.47.34-.93.38v2.71h7.15v4.27h-7.15ZM532.28,31.21c.63-1.56,1.39-3.85,1.86-5.62h-6.55c.8,1.82,1.44,4.01,1.65,5.58l-.26.09h3.42l-.12-.04ZM560.57,31.16v4.69h-4.1v21.1h-4.95v-21.1h-4.23c0,6.26-.93,15.35-6.64,21.18-.63-1.1-2.41-2.83-3.59-3.47,4.95-5.16,5.41-12.3,5.41-18.01v-14.59l2.62.76c3.89-1.27,7.9-2.96,10.31-4.61l4.78,3.63c-.25.25-.68.25-1.18.25-2.96,1.57-7.4,3.17-11.71,4.4v5.75h13.28Z"/>
      <path class="cls-3" d="M575.6,42.41l3.85-1.44.97,4.44c-4.23,1.94-8.71,3.89-11.67,5.12-.04.42-.3.76-.68.89l-2.28-5.62c1.39-.42,3.17-1.01,5.07-1.69v-12.09h-4.14v-4.82h4.14v-9.72l5.83.34c-.04.42-.34.63-1.1.76v8.63h3.98v4.82h-3.98v10.4ZM587.48,48.79c0,2.5.38,2.88,3.04,2.88h8.29c2.33,0,2.75-.97,3.09-5.33,1.1.76,3.09,1.57,4.44,1.82-.64,6-2.16,8.03-7.1,8.03h-9.13c-5.84,0-7.44-1.56-7.44-7.4v-11.33l-3.3,1.44-1.9-4.52,5.2-2.2v-10.91l5.92.34c-.04.38-.34.63-1.1.76v7.74l3.55-1.52v-11.5l5.84.3c-.04.42-.34.68-1.1.76v8.46l4.23-1.82,1.01-.72,4.02,1.48c-.08.21-.34.47-.63.64,0,8.12-.12,13.28-.3,15.01-.21,3.3-2.24,4.14-6.64,4.14-.13-1.31-.51-3.21-1.06-4.27.72.04,1.69.04,2.07.04.51,0,.76-.13.93-.89.08-.68.13-3.85.13-10.02l-3.76,1.61v15.31h-4.74v-13.24l-3.55,1.52v13.4Z"/>
      <path class="cls-3" d="M622,32.56c1.19,1.65,4.36,6.6,5.03,7.78l-2.62,3.63c-.51-1.35-1.48-3.34-2.41-5.24v18.18h-4.61v-16.07c-1.1,3.34-2.41,6.34-3.89,8.5-.46-1.39-1.52-3.34-2.24-4.48,2.41-3.34,4.65-9.22,5.75-14.29h-4.78v-4.69h5.16v-8.84l5.71.34c-.04.38-.34.63-1.1.76v7.74h4.23v4.69h-4.23v1.99ZM635.06,49.38c-.09.25-.42.38-.89.34-1.44,2.03-3.93,4.61-6.3,6.26-.72-.97-2.07-2.28-3.13-3.09,2.24-1.44,4.57-3.85,5.92-5.92l4.4,2.41ZM651.47,46.64h-10.23v5.83c0,4.02-1.73,4.52-7.1,4.52-.17-1.27-.8-2.92-1.35-4.1.8.04,1.61.09,2.24.09,1.44,0,1.52-.09,1.52-.55v-5.79h-10.15v-4.06h25.07v4.06ZM633.75,24.82v-1.99h-7.14v-4.01h24.77v4.01h-7.44v1.99h6.34v10.87h-22.45v-10.87h5.92ZM649.18,40.89h-20.04v-3.68h20.04v3.68ZM631.98,28.5v3.51h2.24v-3.51h-2.24ZM640.01,28.5h-2.37v3.51h2.37v-3.51ZM640.01,24.82v-1.99h-2.33v1.99h2.33ZM648,55.98c-1.06-1.77-3.47-4.57-5.45-6.55l3.59-2.37c2.03,1.86,4.52,4.44,5.67,6.26l-3.81,2.66ZM645.93,32.01v-3.51h-2.5v3.51h2.5Z"/>
    </g>
    <g>
      <g class="cls-1">
        <path class="cls-3" d="M0,26v-4.2h18.27v4.2H0ZM16.37,40.29v13.54H6.63v1.72H2.04v-15.26h14.33ZM2.17,32.06v-4.02h14.33v4.02H2.17ZM2.17,38.12v-3.98h14.33v3.98H2.17ZM16.54,15.83v4.03H2.43v-4.03h14.11ZM11.72,44.49h-5.09v5.13h5.09v-5.13ZM41.75,17.95v5.09h-7.65v26.8c0,5.17-1.64,6.37-11.15,6.28-.22-1.5-1.06-3.89-1.81-5.4,1.72.09,3.49.13,4.78.13,2.48,0,2.79,0,2.79-1.06v-26.76h-9.73v-5.09h22.78Z"/>
        <path class="cls-3" d="M61.48,46.66c-.13.31-.53.53-1.11.53-.26.49-.57.93-.93,1.42,1.72.84,3.45,1.86,4.56,2.65l-3.05,3.8c-1.11-.97-2.92-2.17-4.73-3.1-2.12,1.77-4.73,3.23-7.52,4.25-.62-1.02-2.08-2.87-3.01-3.76,4.11-1.24,7.87-3.58,9.82-6.63h-4.29v-9.51c-1.06.4-2.17.8-3.23,1.15-.57-1.11-1.68-2.96-2.52-3.94,7.16-2.08,14.6-5.93,18.31-9.73l2.3.09c-.84-.57-1.72-1.15-2.43-1.55.22-.18.49-.35.71-.58h-5.22c.71,1.24,1.37,2.52,1.68,3.54l-4.69,1.5c-.35-1.33-1.33-3.32-2.3-5.04h-.53c-1.24,1.95-2.65,3.76-4.03,5.13-.97-.84-2.83-2.03-4.03-2.65,2.61-2.39,5.13-6.41,6.55-10.17l5.62,1.82c-.18.31-.57.53-1.15.44-.22.49-.44,1.02-.71,1.5h9.78v3.05c1.86-1.9,3.49-4.38,4.47-6.81l5.66,1.73c-.13.35-.53.53-1.06.49-.27.53-.53,1.02-.84,1.55h13.27v3.94h-7.7c.97,1.19,1.86,2.39,2.34,3.36l-4.95,1.46c-.62-1.28-1.95-3.23-3.27-4.82h-2.39c-.62.8-1.33,1.55-2.03,2.26l1.37.04c-.09.35-.49.62-1.02.66,4.33,3.63,11.99,6.77,18.31,8.27-1.11,1.15-2.26,2.96-2.96,4.33-3.49-1.11-7.56-2.83-11.19-4.82v2.17h-13.84v-2.3c-2.52,1.42-5.31,2.79-8.18,3.89h13.89v9.55h-6.72l3.01.84ZM56.22,39.85v2.39h3.72v-2.39h-3.72ZM71.04,31.18c-1.81-1.15-3.49-2.3-4.82-3.49-1.24,1.15-2.87,2.34-4.69,3.49h9.51ZM74.58,45.82l2.61.53c-.13.35-.49.57-1.06.62-.22.53-.49,1.06-.75,1.55,3.67,1.11,7.74,2.61,10.35,3.71l-3.32,3.98c-2.43-1.19-6.37-2.79-9.95-3.98-1.77,1.68-3.94,3.05-6.41,3.98-.71-1.02-2.21-2.65-3.18-3.49,3.89-1.24,7.03-3.67,8.45-6.9h-4.11v-9.55h14.15v9.55h-6.77ZM72.19,39.85v2.39h3.89v-2.39h-3.89Z"/>
      </g>
      <g class="cls-2">
        <path class="cls-3" d="M105.57,24.5c2.41-2.92,6.2-4.89,10.94-4.89,8.53,0,15.1,6.49,15.1,17.5,0,10.43-6.78,19.62-17.94,19.62-12.47,0-19.18-9.99-19.18-23.48,0-12.62,5.69-33.26,31.94-33.26v8.32c-1.39,0-2.92.15-4.74.36-10.14,1.39-14.95,8.53-16.34,15.83h.22ZM120.89,37.63c0-5.76-2.77-10.5-7.8-10.5-3.21,0-7.88,2.77-7.88,8.97.15,7.15,3.06,12.84,8.39,12.84,4.74,0,7.29-5.1,7.29-11.31Z"/>
        <path class="cls-3" d="M153.38,28.79c0,7.66-4.3,11.51-8.94,11.51-5.19,0-8.84-4.45-8.84-11.07s3.56-11.41,9.04-11.41c5.93,0,8.74,5.04,8.74,10.97ZM140.93,29.33c0,4.05,1.18,6.92,3.61,6.92s3.51-2.87,3.51-7.21c0-4-.89-7.21-3.51-7.21-3.06,0-3.61,4.6-3.61,7.51ZM148.09,55.66h-4.05l20.65-37.89h4.05l-20.65,37.89ZM177.19,43.91c0,7.71-4.25,11.56-8.89,11.56-5.19,0-8.84-4.5-8.84-11.11s3.56-11.36,9.04-11.36c5.93,0,8.69,5.04,8.69,10.92ZM164.79,44.2c0,4.25,1.19,7.21,3.61,7.21s3.46-2.91,3.46-7.21c0-4-.84-7.21-3.46-7.21s-3.61,3.75-3.61,7.21Z"/>
      </g>
    </g>
  </g>
</svg>