<?xml version="1.0" encoding="UTF-8"?>
<svg id="_圖層_2" xmlns="http://www.w3.org/2000/svg" version="1.1" viewBox="0 0 651.8 57.4">
  <!-- Generator: Adobe Illustrator 29.4.0, SVG Export Plug-In . SVG Version: 2.1.0 Build 152)  -->
  <defs>
    <style>
      .st0 {
        fill: #fff;
      }
    </style>
  </defs>
  <g id="_圖層_1-2">
    <g>
      <path class="st0" d="M223.1,45.4h-5.1v-1.7h-5.7v1.7h-5.2v-13.2h-5.8v17.1h26.6v4.9h-26.6v2.7h-5.2v-24.7h-6.1v-4.9h6.1v-9l6.4.3c0,.4-.3.7-1.1.8v7.8h5.8v-9.9l6.3.3c0,.5-.3.7-1.1.9v8.7h5.7v-9.5l6.3.3c0,.5-.4.7-1.1.9v8.3h6.3v4.9h-6.3v13.2h0ZM212.3,38.9h5.7v-6.7h-5.7v6.7Z"/>
      <path class="st0" d="M270.6,36.8h-6.8c2.9,2.8,7,5.1,11.4,6.3-1.1,1-2.6,3-3.4,4.3-2.9-1-5.7-2.5-8.1-4.4v14h-5v-16l3,.2c-1.4-1.3-2.7-2.8-3.7-4.4h-5.5c-1.1,1.5-2.4,2.9-3.8,4.2l4.1.2c0,.4-.3.7-1.1.8v1.9c0,4.3-1.1,10-9.6,13.4-.6-1.2-2.2-3-3.3-3.9,8-2.9,8-7.3,8-10.8-2.5,2-5.4,3.6-8.4,4.8-.8-1.2-2.2-3.1-3.3-4.1,4.3-1.3,8.5-3.8,11.4-6.6h-6.4v-18.4h30.6v18.4h0ZM245,22.6v3.1h7.6v-3.1s-7.6,0-7.6,0ZM245,29.5v3.2h7.6v-3.2s-7.6,0-7.6,0ZM265.4,25.7v-3.1h-8v3.1h8ZM265.4,32.7v-3.2h-8v3.2h8Z"/>
      <path class="st0" d="M283.1,28.8c2.1,1.1,5,2.7,6.3,4l-2.9,3.9c-1.3-1.3-4-3.2-6.2-4.4l2.8-3.5h0ZM284.1,17.6c2.1,1.1,4.9,2.9,6.2,4.3l-3,3.8c-1.2-1.4-3.9-3.4-6-4.7l2.9-3.4h0ZM281.3,53.9c1.6-3.3,3.7-8.7,5.4-13.7l4,2.6c-1.4,4.5-3.1,9.2-4.5,12.5.2.3.4.6.4.9s0,.3-.1.5l-5.2-2.8ZM316.3,32.2l2.5-.8c.8,1.7,1.5,4,1.9,5.4l-2.7.9c-.2-1.4-.9-3.7-1.6-5.4v6.4h-3.2v-5.9h0c-.5,1.9-1.2,4.1-2.2,5.5-.5-.4-1.3-1-1.9-1.4v1.4h-8.2v-6.4h8.2v4.3c.7-1.3,1.2-3.1,1.5-4.8l2.8.8v-1.7h-2.5c0,.5-.4.6-.6.7l-1-3.6h2.2c.4-.5.9-1,1.3-1.6-.8-.9-1.8-1.8-2.8-2.5v.5h-10.2v-1.1h-.3c-.9,1.4-2.4,3.1-3.8,4.7h2.1s-.5-1.4-.5-1.4l2.2-.8c.7,1.4,1.2,3.3,1.4,4.6h0v-1.5h8.1v2.4h-8.1v-.5l-2.3.9c0-.3,0-.6-.1-1h-1.3v8.6h-3.2v-5.6c-.5,1.8-1.3,3.8-2.3,5.2-.5-.5-1.6-1.2-2.2-1.6.9-1.3,1.5-3.3,1.9-5.3l2.6.8v-1.7h-2.5c0,.5-.3.6-.6.7l-1-3.6h2.4c.4-.5.9-1.1,1.3-1.6-.9-1-2.1-2-3.2-2.8l1.6-2.5.5.3c.7-1.3,1.4-2.8,1.9-4l3.3,1.8c-.2.3-.6.4-1,.3-.5,1-1.4,2.3-2.1,3.5l.9.7c.7-1,1.3-1.9,1.8-2.8l2.5,1.5v-.8h10.2v1l1.1-1.7.5.3c.8-1.3,1.6-2.8,2-4l3.3,1.8c-.2.3-.6.4-1,.3-.5,1-1.4,2.3-2.3,3.5.3.3.6.5.9.9.8-1.1,1.5-2.1,2-3l3.3,1.9c-.2.3-.5.3-1,.3-1,1.4-2.5,3.2-4,4.8h2.4s-.6-1.4-.6-1.4l2.4-1c.9,1.6,1.6,3.6,2,5l-2.6,1.1c0-.3-.1-.7-.2-1.1h-1.6v2.1h0ZM314.9,48.2h1c0-.1,2.9.7,2.9.7,0,.4-.2.7-.4,1-1.2,6.5-2.6,7-7.9,7s-2.7,0-4.2,0c0-1.1-.6-2.7-1.3-3.7,1.8.2,3.6.2,4.9.2,2.4,0,2.8,0,3.4-2h-16.3l-.3,1.1-4.5-.6c.8-2.2,1.6-5.4,2.1-8h17.3v-1.3h-18.9v-3h23.6v7.2h-18l-.3,1.3h17.1ZM298,36.7c-.2-1.2-.6-3.1-1-4.7l2.4-.5c.5,1.4.9,3.3,1.1,4.5l-2.5.7h0ZM300.6,27.4v-2.4h8.1v2.4h-8.1ZM308.5,17.8v2.4h-7.4v-2.4h7.4ZM305.7,36v-1.9h-2.1v1.9h2.1Z"/>
      <path class="st0" d="M377.8,20v3.5h-38v-3.5h16.1v-3l6.5.4c0,.4-.4.7-1.2.8v1.8h16.6ZM364.9,41.4c.5,1.3,1.2,2.6,2,3.8,2.1-1.1,4.3-2.4,5.8-3.5l3.9,3.1c-.1.2-.4.2-.7.2s-.3,0-.5,0c-1.5.9-4,2.1-6.1,3.1,2.3,2.2,5.2,3.7,8.8,4.6-1,.9-2.2,2.7-2.8,3.8-7.7-2.4-12.1-7.5-14.6-15.1h-1.7c-.5.2-1,.5-1.5.8,4.1,2.6,6,6.2,6,9.1s-2.8,5.8-6.6,5.8-2.2,0-3.3,0c0-1.1-.5-2.5-1.1-3.6-3.3,1.5-6.9,2.6-10.4,3.3-.5-.9-1.5-2.3-2.2-3,6.7-1,13.6-3.4,17.6-6.6-.2-.3-.6-.6-.9-.9-3.8,2.3-9.2,4.2-14,5.1-.4-.8-1.4-1.9-2-2.6,4.9-.7,10.4-2.2,13.9-4.1l-1.1-.6c-3.3,1.1-6.9,2-10.2,2.6-.3-.7-1.1-2.1-1.6-2.8,3.2-.5,7-1.3,10.3-2.3h-5.8v-3.1h25.4v3.1h-6.5,0ZM377.4,40.8h-4.6v-3.8h-28.2v4.1h-4.4v-7.5h37.2v7.2ZM345.4,25h26.8v7.4h-26.8v-7.4ZM366.8,29.6v-1.9h-16.3v1.9h16.3ZM359.1,50.8c0-.4,0-.8-.2-1.3-1.7,1.3-3.6,2.5-5.7,3.5,1.1,0,2.2,0,2.8,0,1,0,3.1,0,3.1-2.2Z"/>
      <path class="st0" d="M405.4,49.2c0,1.9.4,2.2,2.9,2.2h7.2c2.3,0,2.7-.9,3-5.9,1.2.9,3.5,1.8,5.1,2.1-.7,6.8-2.3,8.8-7.6,8.8h-8.2c-6.3,0-8-1.7-8-7.1v-4.7l-13.9,1.5-.7-4.9,14.6-1.5v-4.6c-3.1.6-6.3,1.1-9.4,1.5-.2-1.3-1-3.2-1.6-4.4.5,0,1,0,1.5-.2h0s-4.2,0-4.2,0v-10.1h15.3v-4.9l6.6.3c0,.5-.4.7-1.2.9v3.7h15.6v10.1h-5.4v-5.3h-25.7v5.2c7.2-1.1,14.7-2.9,19.3-5.1l4.3,4.3c-.2.2-.3.2-1.2.2-2.2.9-4.8,1.7-7.7,2.4h.6c0,.5-.4.7-1.2.9v4.5l17.5-1.8.7,4.7-18.2,2v5.3h0Z"/>
      <path class="st0" d="M455.2,32.7c.6,1.9,1.4,3.7,2.3,5.4,2.1-1.4,4.5-3.2,6-4.7l4.4,4c-.2.2-.5.2-.9.2s-.3,0-.5,0c-1.6,1.2-4.4,2.9-6.7,4.2,2.5,3.2,5.8,5.8,9.9,7.3-1.1,1-2.7,3-3.4,4.4-8-3.5-12.6-10.6-15.4-19.8-1.1.8-2.4,1.5-3.7,2.2,5.5,3.8,7.6,8.8,7.6,12.8s-3.1,8.1-8,8.1-2.2,0-3.4,0c0-1.3-.5-3.3-1.4-4.8,1.4.2,2.7.2,3.7.2s1.9-.1,2.5-.8c.8-.5,1.3-1.7,1.3-3.2s0-1.1-.2-1.6c-4.6,3.5-11.1,6.9-16.6,8.8-.6-1.2-1.6-3.1-2.7-4.2,6-1.5,13.2-5,17.4-8.5-.2-.4-.5-.8-.9-1.1-3.6,2.4-8.6,4.8-12.6,6.2-.5-1.1-1.6-2.9-2.5-3.8,4-1,9.1-3,12.4-5-.4-.3-.8-.6-1.2-.9-2.8,1.2-5.9,2.2-8.8,2.9-.5-1-1.6-2.9-2.4-3.8,4.5-.9,9.3-2.5,13.1-4.4h-6.8v-4.3h22.7v4.3h-5.6,0ZM436.6,25.8v5h-5v-9.5h15.2v-4.2l6.4.3c0,.4-.3.7-1.1.8v3h15.6v9.5h-5.2v-5h-25.9,0Z"/>
      <path class="st0" d="M508.3,45.6c1.6,3.2,4,5.9,7.1,7.3-1.1.9-2.6,2.8-3.4,4.1-3.1-1.9-5.5-4.9-7.1-8.5-1.6,3.1-4.4,6.1-9.2,8.5-.7-1-2.2-2.6-3.2-3.4,5.2-2.2,7.6-5.1,8.7-7.9h-7.2v-4.5h3.7c-.9-.8-2.5-1.9-3.6-2.5,1.8-2.2,3.2-6,4-9.8h0c-1.1,1.6-2.2,3.1-3.5,4.3-.8-.9-2.5-2.6-3.4-3.4.3-.3.7-.6,1-1h-7.5c0,1.6,0,3.3-.2,5h5.8s2.6.2,2.6.2c0,.4,0,1-.1,1.5-.4,13.3-.9,18.2-2.1,19.8-.9,1.1-1.7,1.6-2.9,1.8-.7.1-1.7.2-2.8.2s-1,0-1.6,0c0-1.3-.5-3.3-1.3-4.6,1.4.1,2.5.2,3.2.2s.9-.1,1.3-.6c.7-.9,1.1-4.4,1.4-13.7h-3.7c-.6,7.1-2,14-5.4,18.8-.8-1.2-2.3-2.7-3.5-3.5,4.1-5.8,4.5-15.5,4.6-24.9h-4.1v-4.7h7.1v-6.8l6,.3c0,.4-.3.7-1.1.8v5.7h6.1v2.5c1.7-2.7,3-6,3.9-9.3l5.7,1.5c-.1.3-.5.5-1.1.5-.3,1.2-.8,2.4-1.2,3.5h13.7v4.6h-15.8l-.3.5,4.9,1.3c0,.3-.5.5-1,.5-.2.8-.4,1.6-.6,2.4h11.6v4.4h-6.6v3.8c0,.3,0,.7,0,1h8v4.5h-6.5ZM497.5,41.1h4.4v-4.8h-1.7c-.8,1.8-1.7,3.5-2.7,4.8Z"/>
      <path class="st0" d="M533.5,42.8v.6c1.3.8,5.2,3.6,6.2,4.4l-2.9,3.6c-.8-.8-2-2.1-3.3-3.3v8.8h-4.9v-8.1c-1.6,2.2-3.4,4.2-5.2,5.5-.8-1.1-2.2-2.8-3.3-3.6,2.8-1.8,5.7-4.9,7.7-8h-6.5v-4.3h7.4v-3.1h-7.9v-4.2h4.2c-.2-1.5-.8-3.4-1.4-4.9l2.8-.8h-4.7v-4.1h7v-4.4l6,.3c0,.4-.3.7-1.1.8v3.2h6.9v4.1h-4.2l3.4.9c-.1.3-.5.5-1.1.5-.5,1.3-1.2,2.9-2,4.3h4.7v4.2h-6.8c-.2.2-.5.3-.9.4v2.7h7.2v4.3h-7.2,0ZM532.3,31.2c.6-1.6,1.4-3.9,1.9-5.6h-6.5c.8,1.8,1.4,4,1.7,5.6h-.3c0,0,3.4,0,3.4,0h-.1ZM560.6,31.2v4.7h-4.1v21.1h-5v-21.1h-4.2c0,6.3-.9,15.3-6.6,21.2-.6-1.1-2.4-2.8-3.6-3.5,5-5.2,5.4-12.3,5.4-18v-14.6l2.6.8c3.9-1.3,7.9-3,10.3-4.6l4.8,3.6c-.2.2-.7.2-1.2.2-3,1.6-7.4,3.2-11.7,4.4v5.8h13.3Z"/>
      <path class="st0" d="M575.6,42.4l3.8-1.4,1,4.4c-4.2,1.9-8.7,3.9-11.7,5.1,0,.4-.3.8-.7.9l-2.3-5.6c1.4-.4,3.2-1,5.1-1.7v-12.1h-4.1v-4.8h4.1v-9.7l5.8.3c0,.4-.3.6-1.1.8v8.6h4v4.8h-4v10.4h0ZM587.5,48.8c0,2.5.4,2.9,3,2.9h8.3c2.3,0,2.8-1,3.1-5.3,1.1.8,3.1,1.6,4.4,1.8-.6,6-2.2,8-7.1,8h-9.1c-5.8,0-7.4-1.6-7.4-7.4v-11.3l-3.3,1.4-1.9-4.5,5.2-2.2v-10.9l5.9.3c0,.4-.3.6-1.1.8v7.7l3.5-1.5v-11.5l5.8.3c0,.4-.3.7-1.1.8v8.5l4.2-1.8,1-.7,4,1.5c0,.2-.3.5-.6.6,0,8.1-.1,13.3-.3,15-.2,3.3-2.2,4.1-6.6,4.1-.1-1.3-.5-3.2-1.1-4.3.7,0,1.7,0,2.1,0s.8-.1.9-.9c0-.7.1-3.8.1-10l-3.8,1.6v15.3h-4.7v-13.2l-3.5,1.5v13.4h0Z"/>
      <path class="st0" d="M622,32.6c1.2,1.7,4.4,6.6,5,7.8l-2.6,3.6c-.5-1.3-1.5-3.3-2.4-5.2v18.2h-4.6v-16.1c-1.1,3.3-2.4,6.3-3.9,8.5-.5-1.4-1.5-3.3-2.2-4.5,2.4-3.3,4.7-9.2,5.8-14.3h-4.8v-4.7h5.2v-8.8l5.7.3c0,.4-.3.6-1.1.8v7.7h4.2v4.7h-4.2v2h0ZM635.1,49.4c0,.2-.4.4-.9.3-1.4,2-3.9,4.6-6.3,6.3-.7-1-2.1-2.3-3.1-3.1,2.2-1.4,4.6-3.8,5.9-5.9l4.4,2.4ZM651.5,46.6h-10.2v5.8c0,4-1.7,4.5-7.1,4.5-.2-1.3-.8-2.9-1.3-4.1.8,0,1.6,0,2.2,0,1.4,0,1.5,0,1.5-.5v-5.8h-10.2v-4.1h25.1v4.1h0ZM633.8,24.8v-2h-7.1v-4h24.8v4h-7.4v2h6.3v10.9h-22.5v-10.9h5.9ZM649.2,40.9h-20v-3.7h20v3.7ZM632,28.5v3.5h2.2v-3.5s-2.2,0-2.2,0ZM640,28.5h-2.4v3.5h2.4s0-3.5,0-3.5ZM640,24.8v-2h-2.3v2h2.3ZM648,56c-1.1-1.8-3.5-4.6-5.5-6.5l3.6-2.4c2,1.9,4.5,4.4,5.7,6.3l-3.8,2.7ZM645.9,32v-3.5h-2.5v3.5h2.5Z"/>
    </g>
    <g>
      <g>
        <path class="st0" d="M0,26v-4.2h18.3v4.2H0ZM16.4,40.3v13.5H6.6v1.7H2v-15.3h14.3ZM2.2,32.1v-4h14.3v4H2.2ZM2.2,38.1v-4h14.3v4H2.2ZM16.5,15.8v4H2.4v-4h14.1ZM11.7,44.5h-5.1v5.1h5.1v-5.1ZM41.8,18v5.1h-7.7v26.8c0,5.2-1.6,6.4-11.1,6.3-.2-1.5-1.1-3.9-1.8-5.4,1.7,0,3.5.1,4.8.1,2.5,0,2.8,0,2.8-1.1v-26.8h-9.7v-5.1h22.8,0Z"/>
        <path class="st0" d="M61.5,46.7c-.1.3-.5.5-1.1.5-.3.5-.6.9-.9,1.4,1.7.8,3.5,1.9,4.6,2.7l-3,3.8c-1.1-1-2.9-2.2-4.7-3.1-2.1,1.8-4.7,3.2-7.5,4.2-.6-1-2.1-2.9-3-3.8,4.1-1.2,7.9-3.6,9.8-6.6h-4.3v-9.5c-1.1.4-2.2.8-3.2,1.2-.6-1.1-1.7-3-2.5-3.9,7.2-2.1,14.6-5.9,18.3-9.7h2.3c-.8-.5-1.7-1.1-2.4-1.5.2-.2.5-.4.7-.6h-5.2c.7,1.2,1.4,2.5,1.7,3.5l-4.7,1.5c-.3-1.3-1.3-3.3-2.3-5h-.5c-1.2,2-2.7,3.8-4,5.1-1-.8-2.8-2-4-2.6,2.6-2.4,5.1-6.4,6.5-10.2l5.6,1.8c-.2.3-.6.5-1.2.4-.2.5-.4,1-.7,1.5h9.8v3c1.9-1.9,3.5-4.4,4.5-6.8l5.7,1.7c-.1.4-.5.5-1.1.5-.3.5-.5,1-.8,1.5h13.3v3.9h-7.7c1,1.2,1.9,2.4,2.3,3.4l-4.9,1.5c-.6-1.3-1.9-3.2-3.3-4.8h-2.4c-.6.8-1.3,1.5-2,2.3h1.4c0,.4-.5.7-1,.7,4.3,3.6,12,6.8,18.3,8.3-1.1,1.2-2.3,3-3,4.3-3.5-1.1-7.6-2.8-11.2-4.8v2.2h-13.8v-2.3c-2.5,1.4-5.3,2.8-8.2,3.9h13.9v9.5h-6.7l3,.8h0ZM56.2,39.8v2.4h3.7v-2.4h-3.7ZM71,31.2c-1.8-1.1-3.5-2.3-4.8-3.5-1.2,1.1-2.9,2.3-4.7,3.5h9.5ZM74.6,45.8l2.6.5c-.1.3-.5.6-1.1.6-.2.5-.5,1.1-.8,1.5,3.7,1.1,7.7,2.6,10.3,3.7l-3.3,4c-2.4-1.2-6.4-2.8-9.9-4-1.8,1.7-3.9,3-6.4,4-.7-1-2.2-2.7-3.2-3.5,3.9-1.2,7-3.7,8.4-6.9h-4.1v-9.5h14.2v9.5h-6.8ZM72.2,39.8v2.4h3.9v-2.4h-3.9Z"/>
      </g>
      <g>
        <path class="st0" d="M105.6,24.5c2.4-2.9,6.2-4.9,10.9-4.9,8.5,0,15.1,6.5,15.1,17.5s-6.8,19.6-17.9,19.6-19.2-10-19.2-23.5S100.2,0,126.4,0v8.3c-1.4,0-2.9.1-4.7.4-10.1,1.4-14.9,8.5-16.3,15.8,0,0,.2,0,.2,0ZM120.9,37.6c0-5.8-2.8-10.5-7.8-10.5s-7.9,2.8-7.9,9c.2,7.2,3.1,12.8,8.4,12.8s7.3-5.1,7.3-11.3Z"/>
        <path class="st0" d="M153.4,28.8c0,7.7-4.3,11.5-8.9,11.5s-8.8-4.5-8.8-11.1,3.6-11.4,9-11.4,8.7,5,8.7,11ZM140.9,29.3c0,4.1,1.2,6.9,3.6,6.9s3.5-2.9,3.5-7.2-.9-7.2-3.5-7.2-3.6,4.6-3.6,7.5h0ZM148.1,55.7h-4.1l20.6-37.9h4.1l-20.6,37.9ZM177.2,43.9c0,7.7-4.2,11.6-8.9,11.6s-8.8-4.5-8.8-11.1,3.6-11.4,9-11.4,8.7,5,8.7,10.9h0ZM164.8,44.2c0,4.2,1.2,7.2,3.6,7.2s3.5-2.9,3.5-7.2-.8-7.2-3.5-7.2-3.6,3.8-3.6,7.2Z"/>
      </g>
    </g>
  </g>
</svg>