<?xml version="1.0" encoding="UTF-8"?>
<svg id="_圖層_2" data-name="圖層 2" xmlns="http://www.w3.org/2000/svg" viewBox="0 0 655.6 195.52">
  <defs>
    <style>
      .cls-1 {
        fill: #fff;
      }
    </style>
  </defs>
  <g id="_圖層_1-2" data-name="圖層 1">
    <g>
      <g>
        <path class="cls-1" d="M56.41,149.99H8.04v-7.72h48.38v-24.69H8.04v-7.72h116.91v7.72h-52.41v24.69h52.41v7.72h-52.41v30.87h58.05v7.72H0v-7.72h56.41v-30.87ZM11.94,20.35h16.13v6.17h25.92c2.14-4.63,3.23-15.35,3.23-25.13h20.96c-5.38,11.32-6.62,22.04-13.07,25.13h40.61v-6.17h16.12v78.71h-16.12v-5.97H28.07v5.97H11.94V20.35ZM113.03,54.3v7.72H28.07v23.35h77.65v-51.13H28.07v20.06h84.96Z"/>
        <path class="cls-1" d="M195.4,57.39V21.12c-4.31.52-11.83.77-22.58.77v-7.22c18.91-1.74,26.65-5.01,40.09-11.7,1.61.52,19.18,8.94,20.79,9.96,1.07,1.04,1.2.74,1.2,1.25s-1.08,1.04-3.22,1.54c-1.08.52-2.96,1.04-5.64,1.54-6.99,1.54-11.83,2.58-14.51,3.09v37.04h19.29v7.72h-19.29v16.98c8.59,6.69,15.58,12.86,20.96,18.52l-4.84,20.06c-.91-1.66-15.07-23.94-16.13-25.33v96.32h-16.12v-79.49c-3.52,7.89-8.59,21.41-24.19,40.9h-4.84c15.04-26.24,24.19-55.56,27.41-87.97h-22.58v-7.72h24.19ZM236.18,140.93v-7.72h26.48v-35.7h-26.48v-7.72h70.49v7.72h-27.88v35.7h27.88v7.72h-27.88v40.13h32.78v7.72h-82.24v-7.72h33.33v-40.13h-26.48ZM253.39,80.07h-16.13V6.46h16.13v3.75h37.4v-3.75h16.12v73.61h-16.12v-4.23h-37.4v4.23ZM253.39,68.12h37.4V17.92h-37.4v50.2Z"/>
        <path class="cls-1" d="M531.94,143.82h18.04c-2.51,16.53-13.08,34.54-22.22,48.62h-8.42c7.9-16.16,12.07-38.48,12.6-48.62ZM550.34,133.02h6.13c3.22,4.63,16.61,31.64,17.69,33.18l7.26-.78v-86.42h12.9v84.39l5.64-1.95v-97.11h13.71v33.18h9.67v-40.13h-49.18v77.94h-15.32v-9.87h-17.74v9.87h-15.32V8.77h15.32v5.19h17.74v-5.96h15.32v40.9h49.18V3.37h14.51v10.8c2.14,1.54,5.91,4.63,11.29,9.26,2.68,2.06,4.56,3.6,5.64,4.63-.54,1.54-2.15,4.63-4.84,9.26-1.61,2.58-2.7,4.63-3.23,6.17-2.15-5.14-8.34-18.32-8.87-19.36v24.76h16.93v8.49h-17.74v42.44c0,32.41,3.23,53.51,9.68,63.28l4.84-36.27h3.22l-2.42,40.9,3.22,2.31-2.42,25.47c-13.98-9.26-22.48-22.98-26.77-45.09-13.99,16.47-31.01,27.34-49.82,36.6l-2.42-19.29-11.43,22.11c.13-.78-7.96-36.15-12.4-56.83ZM558.85,21.68h-17.74v27.99h22.99v7.72h-22.99v23.92h22.99v7.72h-22.99v28.71h17.74V21.68ZM579.01,21.12h38.85v7.72h-38.85v-7.72ZM613.68,106.01v49.98c.44-.06,9.45-6.92,12.15-10.52-1.61-12.85-2.47-26.59-2.47-39.46h-9.67Z"/>
      </g>
      <path class="cls-1" d="M393.03,33.58l-20.75-29.96,6.3-3.62,28.2,22.32-9.67,11.26h27.84L443.55,1.03l10.04,4.65-17.05,27.9h44.21v8.52h-55.8c-2.37,11.53-8.1,20.29-13.2,27.9h36.87v-5.43h15.5v127.09h-15.5v-12.4h-67.48v12.4h-15.5v-127.09h15.5v5.43h19.55c2.69-3.74,7.91-21.58,7.75-27.9h-57.88v-8.52h42.48ZM448.62,170.74v-92.99h-67.48v25.57h73.93v8.52h-73.93v25.57h73.93v8.52h-73.93v24.8h67.48Z"/>
    </g>
  </g>
</svg>